<?xml version="1.0" encoding="iso-8859-1"?>
<!-- Generator: Adobe Illustrator 19.0.0, SVG Export Plug-In . SVG Version: 6.00 Build 0)  -->
<svg version="1.1" id="Layer_1" xmlns="http://www.w3.org/2000/svg" xmlns:xlink="http://www.w3.org/1999/xlink" x="0px" y="0px"
	 viewBox="0 0 512 512" style="enable-background:new 0 0 512 512;" xml:space="preserve">
<path style="fill:#FD3B6D;" d="M450.527,54.208l-0.024,0.061l27.949,76.924l-27.949,76.936c-12.742,4.519-27.439,8.32-44.772,11.029
	c3.097,39.391,2.587,74.555-1.53,106.804c-6.45,50.505-22.192,95.047-46.788,132.361c-10.045,15.22-26.334,23.856-43.242,24.742
	c-11.357,0.595-22.993-2.308-33.209-9.049c-25.447-16.774-32.48-51.003-15.705-76.438c4.895-7.421,9.766-15.353,14.43-23.819
	c0.024,0.012,49.995-48.574,49.995-48.574s-16.106-53.627-16.519-53.627c1.288-10.786,1.992-22.058,1.992-33.84
	c0-5.223-0.134-10.543-0.425-15.973c-37.132-4.604-72.66-17.078-116.655-26.589l0.061-0.304l-24.293-63.666l24.293-63.945
	c55.206-11.916,97.099-28.459,144.738-28.459C390.681,38.782,424.63,45.038,450.527,54.208z"/>
<path style="fill:#FCB5B5;" d="M462.649,103.863v54.659h-78.333c-15.098,0-27.33-12.232-27.33-27.33
	c0-15.086,12.232-27.33,27.33-27.33H462.649z"/>
<path style="fill:#FF738E;" d="M487.197,71.651c-10.397-6.328-22.289-12.341-36.67-17.442l-0.024,0.061v153.86
	c14.394-5.102,26.285-11.102,36.695-17.43c0,0,24.803-20.309,24.803-59.53S487.197,71.651,487.197,71.651z"/>
<path style="fill:#0E4675;" d="M198.134,67.242v127.611l-0.061,0.304c-30.913-6.681-66.004-11.904-108.784-11.904l-36.44-57.222
	l36.44-46.946C131.996,79.085,167.16,73.886,198.134,67.242z"/>
<path style="fill:#3D7A94;" d="M89.289,79.085v104.169c0,0-32.844,33.537-89.289,50.226V28.859
	C56.445,45.548,89.289,79.085,89.289,79.085z"/>
<path style="fill:#FCB5B5;" d="M346.905,309.492l0.644,0.146c-2.782,12.657-6.656,27.803-10.932,40.849
	c-4.178,12.693-17.867,23.285-31.229,23.285c-6.426,0-25.678,0-25.678,0c10.288-18.706,19.653-40.035,26.164-64.34l0.231,0.061
	l19.131-12.147L346.905,309.492z"/>
<path style="fill:#FF738E;" d="M329.535,271.558c13.92,0,23.236,10.98,20.843,24.123c-0.729,4.033-1.688,8.782-2.83,13.956
	l-0.644-0.146h-40.8l-0.231-0.061c3.182-11.904,5.685-24.512,7.288-37.873C313.575,271.558,318.955,271.558,329.535,271.558z"/>
<g>
</g>
<g>
</g>
<g>
</g>
<g>
</g>
<g>
</g>
<g>
</g>
<g>
</g>
<g>
</g>
<g>
</g>
<g>
</g>
<g>
</g>
<g>
</g>
<g>
</g>
<g>
</g>
<g>
</g>
</svg>
